<mxfile host="app.diagrams.net" modified="2024-03-04T22:34:47.776Z" agent="Mozilla/5.0 (Windows NT 6.1) AppleWebKit/537.36 (KHTML, like Gecko) Chrome/97.0.4692.99 Safari/537.36" etag="RA-_VkjW3wzdx_Evt4qq" version="24.0.1" type="device">
  <diagram name="Page-1" id="2YBvvXClWsGukQMizWep">
    <mxGraphModel dx="880" dy="1552" grid="1" gridSize="10" guides="1" tooltips="1" connect="1" arrows="1" fold="1" page="1" pageScale="1" pageWidth="850" pageHeight="1100" math="0" shadow="0">
      <root>
        <mxCell id="0" />
        <mxCell id="1" parent="0" />
        <mxCell id="aM9ryv3xv72pqoxQDRHE-1" value="Отдел продаж&lt;div&gt;CRM&lt;/div&gt;" style="shape=umlLifeline;perimeter=lifelinePerimeter;whiteSpace=wrap;html=1;container=0;dropTarget=0;collapsible=0;recursiveResize=0;outlineConnect=0;portConstraint=eastwest;newEdgeStyle={&quot;edgeStyle&quot;:&quot;elbowEdgeStyle&quot;,&quot;elbow&quot;:&quot;vertical&quot;,&quot;curved&quot;:0,&quot;rounded&quot;:0};fillColor=#fff2cc;gradientColor=#ffd966;strokeColor=#d6b656;shadow=1;" parent="1" vertex="1">
          <mxGeometry x="175" y="160" width="100" height="220" as="geometry" />
        </mxCell>
        <mxCell id="aM9ryv3xv72pqoxQDRHE-2" value="" style="html=1;points=[];perimeter=orthogonalPerimeter;outlineConnect=0;targetShapes=umlLifeline;portConstraint=eastwest;newEdgeStyle={&quot;edgeStyle&quot;:&quot;elbowEdgeStyle&quot;,&quot;elbow&quot;:&quot;vertical&quot;,&quot;curved&quot;:0,&quot;rounded&quot;:0};fillColor=#60a917;fontColor=#ffffff;strokeColor=#2D7600;" parent="aM9ryv3xv72pqoxQDRHE-1" vertex="1">
          <mxGeometry x="45" y="80" width="10" height="30" as="geometry" />
        </mxCell>
        <mxCell id="aM9ryv3xv72pqoxQDRHE-5" value="ERP" style="shape=umlLifeline;perimeter=lifelinePerimeter;whiteSpace=wrap;html=1;container=0;dropTarget=0;collapsible=0;recursiveResize=0;outlineConnect=0;portConstraint=eastwest;newEdgeStyle={&quot;edgeStyle&quot;:&quot;elbowEdgeStyle&quot;,&quot;elbow&quot;:&quot;vertical&quot;,&quot;curved&quot;:0,&quot;rounded&quot;:0};fillColor=#f0a30a;fontColor=#000000;strokeColor=#BD7000;shadow=1;" parent="1" vertex="1">
          <mxGeometry x="340" y="155" width="100" height="225" as="geometry" />
        </mxCell>
        <mxCell id="aM9ryv3xv72pqoxQDRHE-6" value="" style="html=1;points=[];perimeter=orthogonalPerimeter;outlineConnect=0;targetShapes=umlLifeline;portConstraint=eastwest;newEdgeStyle={&quot;edgeStyle&quot;:&quot;elbowEdgeStyle&quot;,&quot;elbow&quot;:&quot;vertical&quot;,&quot;curved&quot;:0,&quot;rounded&quot;:0};" parent="aM9ryv3xv72pqoxQDRHE-5" vertex="1">
          <mxGeometry x="45" y="90" width="10" height="130" as="geometry" />
        </mxCell>
        <mxCell id="LN3z0bSlIVh5phk3mzGh-44" value="" style="html=1;points=[];perimeter=orthogonalPerimeter;outlineConnect=0;targetShapes=umlLifeline;portConstraint=eastwest;newEdgeStyle={&quot;edgeStyle&quot;:&quot;elbowEdgeStyle&quot;,&quot;elbow&quot;:&quot;vertical&quot;,&quot;curved&quot;:0,&quot;rounded&quot;:0};fillColor=#60a917;fontColor=#ffffff;strokeColor=#2D7600;" parent="aM9ryv3xv72pqoxQDRHE-5" vertex="1">
          <mxGeometry x="40" y="100" width="10" height="30" as="geometry" />
        </mxCell>
        <mxCell id="LN3z0bSlIVh5phk3mzGh-64" value="" style="html=1;points=[];perimeter=orthogonalPerimeter;outlineConnect=0;targetShapes=umlLifeline;portConstraint=eastwest;newEdgeStyle={&quot;edgeStyle&quot;:&quot;elbowEdgeStyle&quot;,&quot;elbow&quot;:&quot;vertical&quot;,&quot;curved&quot;:0,&quot;rounded&quot;:0};fillColor=#60a917;fontColor=#ffffff;strokeColor=#2D7600;" parent="aM9ryv3xv72pqoxQDRHE-5" vertex="1">
          <mxGeometry x="50" y="155" width="10" height="55" as="geometry" />
        </mxCell>
        <mxCell id="aM9ryv3xv72pqoxQDRHE-7" value="Обработка заказа&amp;nbsp;" style="html=1;verticalAlign=bottom;endArrow=block;edgeStyle=elbowEdgeStyle;elbow=horizontal;curved=0;rounded=0;" parent="1" source="aM9ryv3xv72pqoxQDRHE-2" target="LN3z0bSlIVh5phk3mzGh-7" edge="1">
          <mxGeometry relative="1" as="geometry">
            <mxPoint x="230" y="260" as="sourcePoint" />
            <Array as="points">
              <mxPoint x="320" y="250" />
            </Array>
            <mxPoint x="570" y="260" as="targetPoint" />
          </mxGeometry>
        </mxCell>
        <mxCell id="LN3z0bSlIVh5phk3mzGh-1" value="&lt;font style=&quot;font-size: 15px;&quot;&gt;Клиент&lt;/font&gt;" style="shape=umlActor;verticalLabelPosition=bottom;verticalAlign=top;html=1;outlineConnect=0;fillColor=#e51400;fontColor=#000000;strokeColor=#B20000;fontStyle=1" parent="1" vertex="1">
          <mxGeometry x="80" y="120" width="40" height="80" as="geometry" />
        </mxCell>
        <mxCell id="LN3z0bSlIVh5phk3mzGh-3" value="&lt;h1&gt;ДИАГРАММА ПОСЛЕДОВАТЕЛЬНОСТИ ВЗАИМОДЕЙСТВИЯ CRM&amp;nbsp; И СИСТЕМЫ&lt;/h1&gt;" style="text;html=1;align=center;verticalAlign=middle;whiteSpace=wrap;rounded=0;fillColor=#dae8fc;strokeColor=#6c8ebf;gradientColor=#7ea6e0;shadow=1;" parent="1" vertex="1">
          <mxGeometry x="115" y="-30" width="620" height="80" as="geometry" />
        </mxCell>
        <mxCell id="LN3z0bSlIVh5phk3mzGh-6" value="&lt;span style=&quot;background-color: initial;&quot;&gt;Отдел закупок&lt;/span&gt;&lt;div&gt;&lt;span style=&quot;background-color: initial;&quot;&gt;SRM&amp;nbsp;&lt;/span&gt;&lt;/div&gt;" style="shape=umlLifeline;perimeter=lifelinePerimeter;whiteSpace=wrap;html=1;container=0;dropTarget=0;collapsible=0;recursiveResize=0;outlineConnect=0;portConstraint=eastwest;newEdgeStyle={&quot;edgeStyle&quot;:&quot;elbowEdgeStyle&quot;,&quot;elbow&quot;:&quot;vertical&quot;,&quot;curved&quot;:0,&quot;rounded&quot;:0};fillColor=#fff2cc;gradientColor=#ffd966;strokeColor=#d6b656;shadow=1;" parent="1" vertex="1">
          <mxGeometry x="510" y="155" width="100" height="225" as="geometry" />
        </mxCell>
        <mxCell id="LN3z0bSlIVh5phk3mzGh-7" value="" style="html=1;points=[];perimeter=orthogonalPerimeter;outlineConnect=0;targetShapes=umlLifeline;portConstraint=eastwest;newEdgeStyle={&quot;edgeStyle&quot;:&quot;elbowEdgeStyle&quot;,&quot;elbow&quot;:&quot;vertical&quot;,&quot;curved&quot;:0,&quot;rounded&quot;:0};fillColor=#60a917;fontColor=#ffffff;strokeColor=#2D7600;" parent="LN3z0bSlIVh5phk3mzGh-6" vertex="1">
          <mxGeometry x="45" y="90" width="10" height="80" as="geometry" />
        </mxCell>
        <mxCell id="LN3z0bSlIVh5phk3mzGh-9" value="Склад&amp;nbsp;&lt;div&gt;WMS&lt;/div&gt;" style="shape=umlLifeline;perimeter=lifelinePerimeter;whiteSpace=wrap;html=1;container=0;dropTarget=0;collapsible=0;recursiveResize=0;outlineConnect=0;portConstraint=eastwest;newEdgeStyle={&quot;edgeStyle&quot;:&quot;elbowEdgeStyle&quot;,&quot;elbow&quot;:&quot;vertical&quot;,&quot;curved&quot;:0,&quot;rounded&quot;:0};fillColor=#fff2cc;gradientColor=#ffd966;strokeColor=#d6b656;shadow=1;" parent="1" vertex="1">
          <mxGeometry x="670" y="155" width="100" height="225" as="geometry" />
        </mxCell>
        <mxCell id="LN3z0bSlIVh5phk3mzGh-10" value="" style="html=1;points=[];perimeter=orthogonalPerimeter;outlineConnect=0;targetShapes=umlLifeline;portConstraint=eastwest;newEdgeStyle={&quot;edgeStyle&quot;:&quot;elbowEdgeStyle&quot;,&quot;elbow&quot;:&quot;vertical&quot;,&quot;curved&quot;:0,&quot;rounded&quot;:0};fillColor=#60a917;fontColor=#ffffff;strokeColor=#2D7600;" parent="LN3z0bSlIVh5phk3mzGh-9" vertex="1">
          <mxGeometry x="45" y="140" width="10" height="90" as="geometry" />
        </mxCell>
        <mxCell id="LN3z0bSlIVh5phk3mzGh-20" value="" style="html=1;points=[];perimeter=orthogonalPerimeter;outlineConnect=0;targetShapes=umlLifeline;portConstraint=eastwest;newEdgeStyle={&quot;edgeStyle&quot;:&quot;elbowEdgeStyle&quot;,&quot;elbow&quot;:&quot;vertical&quot;,&quot;curved&quot;:0,&quot;rounded&quot;:0};fillColor=#60a917;fontColor=#ffffff;strokeColor=#2D7600;" parent="1" vertex="1">
          <mxGeometry x="80" y="240" width="10" height="140" as="geometry" />
        </mxCell>
        <mxCell id="aM9ryv3xv72pqoxQDRHE-3" value="&lt;font style=&quot;vertical-align: inherit;&quot;&gt;&lt;font style=&quot;vertical-align: inherit;&quot;&gt;Оформление заказа&lt;/font&gt;&lt;/font&gt;" style="html=1;verticalAlign=bottom;startArrow=oval;endArrow=block;startSize=8;edgeStyle=elbowEdgeStyle;elbow=vertical;curved=0;rounded=0;align=center;entryX=0.5;entryY=0;entryDx=0;entryDy=0;entryPerimeter=0;exitX=0.55;exitY=0;exitDx=0;exitDy=0;exitPerimeter=0;" parent="1" source="LN3z0bSlIVh5phk3mzGh-20" target="aM9ryv3xv72pqoxQDRHE-2" edge="1">
          <mxGeometry x="0.0196" relative="1" as="geometry">
            <mxPoint x="123" y="230" as="sourcePoint" />
            <mxPoint x="222.5" y="240" as="targetPoint" />
            <mxPoint as="offset" />
          </mxGeometry>
        </mxCell>
        <mxCell id="LN3z0bSlIVh5phk3mzGh-38" value="" style="edgeStyle=elbowEdgeStyle;rounded=0;orthogonalLoop=1;jettySize=auto;html=1;elbow=vertical;curved=0;" parent="1" source="LN3z0bSlIVh5phk3mzGh-7" target="LN3z0bSlIVh5phk3mzGh-10" edge="1">
          <mxGeometry relative="1" as="geometry">
            <mxPoint x="675" y="345" as="targetPoint" />
            <Array as="points">
              <mxPoint x="660" y="300" />
              <mxPoint x="590" y="270" />
            </Array>
          </mxGeometry>
        </mxCell>
        <mxCell id="LN3z0bSlIVh5phk3mzGh-59" value="Закупка товара" style="edgeLabel;html=1;align=center;verticalAlign=bottom;resizable=0;points=[];" parent="LN3z0bSlIVh5phk3mzGh-38" vertex="1" connectable="0">
          <mxGeometry x="-0.0206" y="-1" relative="1" as="geometry">
            <mxPoint as="offset" />
          </mxGeometry>
        </mxCell>
        <mxCell id="LN3z0bSlIVh5phk3mzGh-57" value="" style="endArrow=classic;startArrow=classic;html=1;rounded=0;exitX=0.5;exitY=1;exitDx=0;exitDy=0;exitPerimeter=0;" parent="1" source="aM9ryv3xv72pqoxQDRHE-2" edge="1">
          <mxGeometry width="50" height="50" relative="1" as="geometry">
            <mxPoint x="460" y="330" as="sourcePoint" />
            <mxPoint x="380" y="270" as="targetPoint" />
            <Array as="points">
              <mxPoint x="310" y="270" />
            </Array>
          </mxGeometry>
        </mxCell>
        <mxCell id="LN3z0bSlIVh5phk3mzGh-67" value="Доступ к информации" style="edgeLabel;html=1;align=center;verticalAlign=middle;resizable=0;points=[];" parent="LN3z0bSlIVh5phk3mzGh-57" vertex="1" connectable="0">
          <mxGeometry x="-0.0154" y="-2" relative="1" as="geometry">
            <mxPoint as="offset" />
          </mxGeometry>
        </mxCell>
        <mxCell id="LN3z0bSlIVh5phk3mzGh-61" value="" style="endArrow=classic;startArrow=classic;html=1;rounded=0;" parent="1" source="LN3z0bSlIVh5phk3mzGh-64" target="LN3z0bSlIVh5phk3mzGh-7" edge="1">
          <mxGeometry width="50" height="50" relative="1" as="geometry">
            <mxPoint x="460" y="330" as="sourcePoint" />
            <mxPoint x="510" y="280" as="targetPoint" />
          </mxGeometry>
        </mxCell>
        <mxCell id="LN3z0bSlIVh5phk3mzGh-68" value="Доступ к информации" style="edgeLabel;html=1;align=center;verticalAlign=middle;resizable=0;points=[];" parent="LN3z0bSlIVh5phk3mzGh-61" vertex="1" connectable="0">
          <mxGeometry x="-0.1871" relative="1" as="geometry">
            <mxPoint x="17" as="offset" />
          </mxGeometry>
        </mxCell>
        <mxCell id="LN3z0bSlIVh5phk3mzGh-78" value="" style="edgeStyle=elbowEdgeStyle;rounded=0;orthogonalLoop=1;jettySize=auto;html=1;elbow=vertical;curved=0;verticalAlign=bottom;" parent="1" source="LN3z0bSlIVh5phk3mzGh-10" target="LN3z0bSlIVh5phk3mzGh-20" edge="1">
          <mxGeometry relative="1" as="geometry">
            <Array as="points">
              <mxPoint x="210" y="380" />
            </Array>
          </mxGeometry>
        </mxCell>
        <mxCell id="LN3z0bSlIVh5phk3mzGh-79" value="Доставка заказа" style="edgeLabel;html=1;align=center;verticalAlign=bottom;resizable=0;points=[];" parent="LN3z0bSlIVh5phk3mzGh-78" vertex="1" connectable="0">
          <mxGeometry x="0.824" y="1" relative="1" as="geometry">
            <mxPoint as="offset" />
          </mxGeometry>
        </mxCell>
        <mxCell id="LN3z0bSlIVh5phk3mzGh-80" value="" style="endArrow=classic;startArrow=classic;html=1;rounded=0;" parent="1" source="LN3z0bSlIVh5phk3mzGh-64" target="LN3z0bSlIVh5phk3mzGh-9" edge="1">
          <mxGeometry width="50" height="50" relative="1" as="geometry">
            <mxPoint x="460" y="330" as="sourcePoint" />
            <mxPoint x="510" y="280" as="targetPoint" />
            <Array as="points">
              <mxPoint x="560" y="350" />
            </Array>
          </mxGeometry>
        </mxCell>
        <mxCell id="LN3z0bSlIVh5phk3mzGh-81" value="Доступ к информации" style="edgeLabel;html=1;align=center;verticalAlign=middle;resizable=0;points=[];" parent="LN3z0bSlIVh5phk3mzGh-80" vertex="1" connectable="0">
          <mxGeometry x="-0.1612" relative="1" as="geometry">
            <mxPoint as="offset" />
          </mxGeometry>
        </mxCell>
      </root>
    </mxGraphModel>
  </diagram>
</mxfile>
